M48
; DRILL file {KiCad (6.0.0)} date Sat Jan 21 17:32:29 2023
; FORMAT={-:-/ absolute / inch / decimal}
; #@! TF.CreationDate,2023-01-21T17:32:29+03:00
; #@! TF.GenerationSoftware,Kicad,Pcbnew,(6.0.0)
; #@! TF.FileFunction,MixedPlating,1,4
FMAT,2
INCH
; #@! TA.AperFunction,Plated,PTH,ComponentDrill
T1C0.0079
; #@! TA.AperFunction,Plated,PTH,ViaDrill
T2C0.0118
; #@! TA.AperFunction,Plated,PTH,ViaDrill
T3C0.0157
; #@! TA.AperFunction,Plated,PTH,ComponentDrill
T4C0.0236
; #@! TA.AperFunction,Plated,PTH,ComponentDrill
T5C0.0315
; #@! TA.AperFunction,Plated,PTH,ComponentDrill
T6C0.0394
; #@! TA.AperFunction,Plated,PTH,ComponentDrill
T7C0.1260
; #@! TA.AperFunction,NonPlated,NPTH,ComponentDrill
T8C0.0236
; #@! TA.AperFunction,NonPlated,NPTH,ComponentDrill
T9C0.0591
%
G90
G05
T1
X7.0335Y-4.3882
X7.0335Y-4.4344
X7.0335Y-4.4807
X7.0335Y-4.527
X7.0335Y-4.5732
X7.0728Y-4.3882
X7.0728Y-4.4344
X7.0728Y-4.4807
X7.0728Y-4.527
X7.0728Y-4.5732
X7.1122Y-4.3882
X7.1122Y-4.4344
X7.1122Y-4.4807
X7.1122Y-4.527
X7.1122Y-4.5732
X7.1516Y-4.3882
X7.1516Y-4.4344
X7.1516Y-4.4807
X7.1516Y-4.527
X7.1516Y-4.5732
X7.1909Y-4.3882
X7.1909Y-4.4344
X7.1909Y-4.4807
X7.1909Y-4.527
X7.1909Y-4.5732
T2
X6.7138Y-4.3512
X6.715Y-4.3933
X6.9024Y-4.4004
X6.9043Y-4.4382
X6.9077Y-4.8376
X6.9081Y-4.7876
X7.1059Y-3.1531
X7.1374Y-3.522
X8.1614Y-4.0004
X8.1862Y-3.3343
X8.1866Y-3.1803
X8.35Y-4.0776
X8.3594Y-3.9709
X8.4469Y-4.2701
X8.4512Y-3.1217
X8.4516Y-3.2535
X8.5197Y-3.8307
X8.5539Y-3.8307
X8.5661Y-4.0006
X8.5732Y-4.1354
X8.6165Y-3.7949
X8.6618Y-4.3268
X8.6886Y-4.2996
X8.7382Y-4.2843
X8.8039Y-3.9665
X8.8079Y-4.1826
X8.8079Y-4.0858
X8.8082Y-4.1196
X8.8083Y-4.1511
X8.8126Y-3.3976
X8.8776Y-4.4004
X8.9087Y-3.4305
X9.2768Y-3.3539
X9.5846Y-3.3878
T3
X6.2Y-3.4
X6.2Y-3.5
X6.2Y-3.6
X6.2Y-3.7
X6.2Y-3.8
X6.2Y-3.9
X6.2Y-4.0
X6.2Y-4.1
X6.2Y-4.2
X6.2Y-4.3
X6.2Y-4.4
X6.2Y-4.5
X6.2Y-4.6
X6.2Y-4.7
X6.2Y-4.8
X6.7173Y-4.7559
X6.7173Y-4.8047
X6.8295Y-4.539
X6.8961Y-4.6878
X6.9012Y-4.2118
X6.9295Y-4.6453
X6.9488Y-4.3134
X7.1228Y-4.2587
X7.128Y-3.735
X7.1673Y-4.8323
X7.1839Y-3.735
X7.2465Y-4.0965
X7.3165Y-4.2445
X7.4113Y-4.0174
X7.4264Y-4.5921
X7.7Y-3.9
X7.7Y-4.0
X7.7Y-4.1
X7.7Y-4.2
X7.7Y-4.3
X7.7Y-4.4
X7.7Y-4.5
X8.1921Y-4.2551
X8.2Y-3.5
X8.3Y-3.5
X8.4346Y-3.852
X8.4551Y-4.3657
X8.4913Y-4.1445
X8.4961Y-4.0091
X8.6661Y-4.1429
X8.7217Y-3.8772
X8.778Y-3.8894
X8.8783Y-3.9154
X8.8799Y-3.8697
X8.8909Y-4.5449
X8.9Y-4.8
X8.9079Y-4.2394
X8.9083Y-4.2799
X8.9343Y-4.5445
X9.0Y-4.8
X9.1Y-4.8
X9.2Y-3.6
X9.2Y-3.6
X9.3Y-3.6
X9.8Y-3.4
X9.8Y-3.5
X9.9Y-3.4
X9.9Y-3.5
T5
X7.4843Y-3.5079
X7.4843Y-3.8079
X7.5843Y-3.5079
X7.5843Y-3.8079
T6
X6.4681Y-4.5567
X6.4681Y-4.6567
X6.4681Y-4.7567
X6.4717Y-3.5445
X6.4717Y-3.6445
X6.4717Y-3.7445
X6.4717Y-3.8445
X6.4717Y-3.9445
X6.4717Y-4.0445
X6.4717Y-4.1445
X6.6929Y-3.6417
X6.6929Y-3.7417
X6.6929Y-3.8417
X7.3661Y-4.8642
X7.4661Y-4.8642
X7.5339Y-4.3063
X7.5339Y-4.4063
X7.5661Y-4.8642
X7.8467Y-4.861
X7.8484Y-4.7189
X7.9467Y-4.861
X7.9484Y-4.7189
X8.0467Y-4.861
X8.0484Y-4.7189
X8.2311Y-3.6713
X8.2555Y-4.0709
X8.2555Y-4.1709
X8.3311Y-3.6713
X8.3524Y-4.4201
X8.3524Y-4.5201
X8.3524Y-4.6201
X8.3524Y-4.7201
X8.3524Y-4.8201
X8.4311Y-3.6713
X8.9969Y-3.4854
X9.0969Y-3.4854
X9.398Y-3.4929
X9.498Y-3.4929
X9.598Y-3.4929
T7
X6.2992Y-3.1496
X7.9724Y-3.6417
X9.8425Y-3.1496
T8
X6.9299Y-3.1685
X7.1575Y-3.1685
T9
X7.6705Y-2.9992
X7.6705Y-3.2748
T4
G00X6.8736Y-3.0075
M15
G01X6.8736Y-3.039
M16
G05
G00X6.8736Y-3.1657
M15
G01X6.8736Y-3.2091
M16
G05
G00X7.2138Y-3.0075
M15
G01X7.2138Y-3.039
M16
G05
G00X7.2138Y-3.1657
M15
G01X7.2138Y-3.2091
M16
G05
T0
M30
