G04 #@! TF.GenerationSoftware,KiCad,Pcbnew,(6.0.0)*
G04 #@! TF.CreationDate,2023-01-21T17:32:24+03:00*
G04 #@! TF.ProjectId,dspmodule,6473706d-6f64-4756-9c65-2e6b69636164,rev?*
G04 #@! TF.SameCoordinates,Original*
G04 #@! TF.FileFunction,Legend,Bot*
G04 #@! TF.FilePolarity,Positive*
%FSLAX46Y46*%
G04 Gerber Fmt 4.6, Leading zero omitted, Abs format (unit mm)*
G04 Created by KiCad (PCBNEW (6.0.0)) date 2023-01-21 17:32:24*
%MOMM*%
%LPD*%
G01*
G04 APERTURE LIST*
%ADD10C,0.150000*%
%ADD11C,0.120000*%
G04 APERTURE END LIST*
D10*
X216767142Y-98163333D02*
X216814761Y-98115714D01*
X216862380Y-97972857D01*
X216862380Y-97877619D01*
X216814761Y-97734761D01*
X216719523Y-97639523D01*
X216624285Y-97591904D01*
X216433809Y-97544285D01*
X216290952Y-97544285D01*
X216100476Y-97591904D01*
X216005238Y-97639523D01*
X215910000Y-97734761D01*
X215862380Y-97877619D01*
X215862380Y-97972857D01*
X215910000Y-98115714D01*
X215957619Y-98163333D01*
X215862380Y-98496666D02*
X215862380Y-99115714D01*
X216243333Y-98782380D01*
X216243333Y-98925238D01*
X216290952Y-99020476D01*
X216338571Y-99068095D01*
X216433809Y-99115714D01*
X216671904Y-99115714D01*
X216767142Y-99068095D01*
X216814761Y-99020476D01*
X216862380Y-98925238D01*
X216862380Y-98639523D01*
X216814761Y-98544285D01*
X216767142Y-98496666D01*
X219807142Y-98113333D02*
X219854761Y-98065714D01*
X219902380Y-97922857D01*
X219902380Y-97827619D01*
X219854761Y-97684761D01*
X219759523Y-97589523D01*
X219664285Y-97541904D01*
X219473809Y-97494285D01*
X219330952Y-97494285D01*
X219140476Y-97541904D01*
X219045238Y-97589523D01*
X218950000Y-97684761D01*
X218902380Y-97827619D01*
X218902380Y-97922857D01*
X218950000Y-98065714D01*
X218997619Y-98113333D01*
X219235714Y-98970476D02*
X219902380Y-98970476D01*
X218854761Y-98732380D02*
X219569047Y-98494285D01*
X219569047Y-99113333D01*
X218186666Y-109022380D02*
X218520000Y-108546190D01*
X218758095Y-109022380D02*
X218758095Y-108022380D01*
X218377142Y-108022380D01*
X218281904Y-108070000D01*
X218234285Y-108117619D01*
X218186666Y-108212857D01*
X218186666Y-108355714D01*
X218234285Y-108450952D01*
X218281904Y-108498571D01*
X218377142Y-108546190D01*
X218758095Y-108546190D01*
X217234285Y-109022380D02*
X217805714Y-109022380D01*
X217520000Y-109022380D02*
X217520000Y-108022380D01*
X217615238Y-108165238D01*
X217710476Y-108260476D01*
X217805714Y-108308095D01*
X180087857Y-120007142D02*
X180135476Y-120054761D01*
X180278333Y-120102380D01*
X180373571Y-120102380D01*
X180516428Y-120054761D01*
X180611666Y-119959523D01*
X180659285Y-119864285D01*
X180706904Y-119673809D01*
X180706904Y-119530952D01*
X180659285Y-119340476D01*
X180611666Y-119245238D01*
X180516428Y-119150000D01*
X180373571Y-119102380D01*
X180278333Y-119102380D01*
X180135476Y-119150000D01*
X180087857Y-119197619D01*
X179135476Y-120102380D02*
X179706904Y-120102380D01*
X179421190Y-120102380D02*
X179421190Y-119102380D01*
X179516428Y-119245238D01*
X179611666Y-119340476D01*
X179706904Y-119388095D01*
X178659285Y-120102380D02*
X178468809Y-120102380D01*
X178373571Y-120054761D01*
X178325952Y-120007142D01*
X178230714Y-119864285D01*
X178183095Y-119673809D01*
X178183095Y-119292857D01*
X178230714Y-119197619D01*
X178278333Y-119150000D01*
X178373571Y-119102380D01*
X178564047Y-119102380D01*
X178659285Y-119150000D01*
X178706904Y-119197619D01*
X178754523Y-119292857D01*
X178754523Y-119530952D01*
X178706904Y-119626190D01*
X178659285Y-119673809D01*
X178564047Y-119721428D01*
X178373571Y-119721428D01*
X178278333Y-119673809D01*
X178230714Y-119626190D01*
X178183095Y-119530952D01*
D11*
X215510000Y-101066248D02*
X215510000Y-102488752D01*
X217330000Y-101066248D02*
X217330000Y-102488752D01*
X218490000Y-101096248D02*
X218490000Y-102518752D01*
X220310000Y-101096248D02*
X220310000Y-102518752D01*
X217292936Y-105840000D02*
X218747064Y-105840000D01*
X217292936Y-107660000D02*
X218747064Y-107660000D01*
X179298733Y-117710000D02*
X179591267Y-117710000D01*
X179298733Y-118730000D02*
X179591267Y-118730000D01*
M02*
